# xmcd
#
# Track frame offsets:
#	182
#	15682
#	28012
#	41472
#	54380
#	69685
#	84412
#	97767
#	111195
#
# Disc length: 1642 seconds
#
# Revision: 0
# Processed by: cddbd v1.5.1PL0 Copyright (c) Steve Scherf et al.
# Submitted via: EasyCDDAExtractor 4.5.0.2
#
DISCID=67066809
DTITLE=Waylon Jennings - The Best Of
DYEAR=1900
DGENRE=Country
TTITLE0=Lucille (You Won't Do Your Daddy's Will)
TTITLE1=I Don't Have Any More Love Songs
TTITLE2=Never Could Toe The Mark
TTITLE3=Money Cannot Make The Man
TTITLE4=Breakin' Down
TTITLE5=The Broken Promise Land
TTITLE6=I May Be Used (But Baby I Ain't Used Up)
TTITLE7=Drinkin' And Dreamin'
TTITLE8=The Devil's On The Loose
EXTD=
EXTT0=
EXTT1=
EXTT2=
EXTT3=
EXTT4=
EXTT5=
EXTT6=
EXTT7=
EXTT8=
PLAYORDER=
